<?xml version="1.0" encoding="UTF-8"?>
<svg id="Layer_1" data-name="Layer 1" xmlns="http://www.w3.org/2000/svg" xmlns:xlink="http://www.w3.org/1999/xlink" viewBox="0 0 1319.19 664.09">
  <defs>
    <style>
      .cls-1 {
        fill: #333;
      }

      .cls-1, .cls-2, .cls-3 {
        stroke-width: 0px;
      }

      .cls-2 {
        fill: none;
      }

      .cls-3 {
        fill: url(#GradientFill_24);
      }
    </style>
    <linearGradient id="GradientFill_24" data-name="GradientFill 24" x1="135.86" y1="306.13" x2="1185.72" y2="306.13" gradientUnits="userSpaceOnUse">
      <stop offset="0" stop-color="#f2af03"/>
      <stop offset=".52" stop-color="#f2e85d"/>
      <stop offset="1" stop-color="#e39e04"/>
    </linearGradient>
  </defs>
  <path class="cls-2" d="M956.01,241.99c-3.84-4.21-8.54-7.54-13.98-9.88-5.46-2.35-11.72-3.54-18.61-3.54h-29.1v99.15h29.1c6.9,0,13.16-1.19,18.61-3.54,5.45-2.34,10.16-5.63,14-9.78,3.83-4.13,6.77-9.3,8.74-15.37,2.02-6.21,3.04-13.23,3.04-20.88s-1.02-14.63-3.03-20.75c-1.98-6-4.93-11.18-8.77-15.4Z"/>
  <g>
    <path class="cls-2" d="M765.92,241.13c-4.1-4.48-9.06-8.01-14.75-10.51-5.7-2.51-11.99-3.78-18.71-3.78s-12.97,1.27-18.57,3.77c-5.64,2.51-10.66,6.07-14.93,10.57-4.26,4.48-7.53,9.85-9.74,15.94-2.24,6.17-3.37,13.07-3.37,20.53s1.13,14.37,3.37,20.53c2.21,6.11,5.49,11.52,9.76,16.08,4.25,4.56,9.26,8.1,14.88,10.53,5.61,2.43,11.88,3.66,18.61,3.66s13.04-1.23,18.74-3.67c5.67-2.42,10.62-5.94,14.69-10.48,4.13-4.59,7.44-10.04,9.83-16.2,2.38-6.15,3.59-13.03,3.59-20.46s-1.21-14.31-3.59-20.46c-2.39-6.15-5.69-11.55-9.81-16.06Z"/>
    <path class="cls-3" d="M551.86,327.72v-139.41h-43.95v179.66h122.17v-40.25h-78.21ZM275.56,188.31l-50.6,81.2-49.89-81.2h-39.21v179.66h43.22v-100.89l45.88,65.92,45.12-65.64v100.62h43.22v-179.66h-37.74ZM394.2,328.45v-32.77h68.85v-38.53h-68.85v-29.31h80.68v-39.52h-123.64v179.66h125.38v-39.52h-82.42ZM817.1,240.85c-2.22-5.63-4.93-10.92-8.13-15.87-3.2-4.93-6.88-9.5-11.01-13.68-8.28-8.35-18.04-14.92-29.02-19.5-10.97-4.6-23.25-6.93-36.48-6.93s-25.32,2.33-36.38,6.91c-11.06,4.6-20.86,11.17-29.14,19.52-8.27,8.35-14.71,18.25-19.14,29.42-4.43,11.13-6.67,23.55-6.67,36.94s2.24,25.63,6.67,36.92c4.43,11.32,10.87,21.27,19.15,29.56,8.27,8.27,18.06,14.78,29.12,19.38,11.06,4.6,23.3,6.93,36.38,6.93s25.51-2.33,36.48-6.93c10.99-4.6,20.75-11.17,29.02-19.52,8.27-8.35,14.71-18.29,19.14-29.54,4.43-11.22,6.67-23.6,6.67-36.8s-2.24-25.58-6.67-36.8ZM775.72,298.11c-2.38,6.16-5.7,11.62-9.83,16.2-4.08,4.53-9.01,8.06-14.69,10.47-5.71,2.43-12.02,3.66-18.74,3.66s-13.01-1.22-18.62-3.65c-5.63-2.43-10.63-5.97-14.88-10.54s-7.54-9.97-9.76-16.08c-2.22-6.16-3.37-13.08-3.37-20.53s1.15-14.36,3.37-20.53c2.21-6.1,5.49-11.46,9.74-15.94,4.27-4.5,9.29-8.06,14.93-10.58,5.61-2.5,11.86-3.77,18.58-3.77s13.01,1.27,18.7,3.79c5.7,2.5,10.65,6.03,14.74,10.51,4.13,4.5,7.43,9.92,9.81,16.06,2.38,6.15,3.59,13.02,3.59,20.46s-1.22,14.31-3.59,20.46ZM1136.16,188.31l-38.59,60.74-42.32-60.74h-51.21l71.34,100.82v78.42c-2.59.94-5.11,2.07-7.52,3.35-19.83,10.58-30.02,30.39-22.68,44.14,2.74,5.16,7.59,8.93,14,10.87,3.25.99,6.77,1.48,10.47,1.48,7.99,0,16.72-2.26,24.82-6.58,14.88-7.92,24.75-21.05,25.13-33.57v-98.62l66.13-100.32h-49.56ZM1006.11,241.88c-2.05-5.45-4.58-10.59-7.57-15.35-2.99-4.76-6.44-9.13-10.33-13.11-7.8-7.95-17.14-14.2-27.82-18.55-10.66-4.36-22.68-6.56-35.74-6.56h-74.27v179.66h74.27c13.06,0,25.13-2.21,35.84-6.55,10.78-4.36,20.14-10.61,27.85-18.56,7.69-7.97,13.68-17.59,17.78-28.6,4.06-10.94,6.13-23.1,6.13-36.12s-2.07-25.39-6.15-36.26ZM964.78,299.03c-1.98,6.06-4.91,11.24-8.75,15.37-3.84,4.15-8.54,7.43-14,9.78-5.45,2.34-11.72,3.54-18.62,3.54h-29.09v-99.16h29.09c6.89,0,13.16,1.2,18.62,3.54,5.44,2.34,10.14,5.68,13.98,9.88,3.84,4.22,6.79,9.41,8.77,15.4,2.01,6.13,3.04,13.11,3.04,20.75s-1.02,14.67-3.04,20.89Z"/>
    <g>
      <path class="cls-1" d="M637.02,473.67c.77-.42,1.72-1.32,2.85-2.72,1.13-1.4,2.22-2.77,3.3-4.1,1.06-1.33,1.87-2.09,2.4-2.27.35-.59.68-1.09.98-1.51.29-.42.74-.8,1.33-1.16.95-1.72,2.2-3.17,3.75-4.36,1.59-1.25,3.07-2.59,4.44-4,1.13-.48,2.28-1.01,3.44-1.61,1.16-.59,2.3-1.27,3.42-2.04,2.32-1.54,4.89-2.35,7.73-2.41,1.32.59,2.59.77,3.83.53,1.19-.23,2.35.06,3.47.9.66,1.13,1.19,1.8,1.61,2.04s.77.56,1.06.98c.48,1.48.84,2.46,1.08,2.94.29.47.47.98.53,1.51.06.88.11,1.64.18,2.27.06.63.13,1.14.18,1.56.06.77.06,1.51,0,2.22-.35,3.02-.95,6.06-1.77,9.08-.13.35-.24.71-.37,1.06-.11.37-.23.76-.35,1.16-.24.77-.53,1.46-.88,2.06-.88,1.13-1.51,2.04-1.87,2.75-.55.95-.93,1.58-1.16,1.88-.72.71-1.38,1.37-2.01,1.95-.63.59-1.21,1.14-1.74,1.61-.53.31-1.06.61-1.61.93-.53.34-1.06.68-1.59,1.03-1.01.66-2.2,1.13-3.57,1.41l-1.59.98c-.55.37-1.13.58-1.78.63-1.06.77-2.25,1.4-3.55,1.87-.59.24-1.21.48-1.83.72-.63.23-1.25.5-1.91.8-.88.35-1.66.77-2.32,1.24-.66.48-1.48.95-2.49,1.43-.53.18-1.4.39-2.59.61-1.13.18-1.93.39-2.4.63.59,1.19.84,2.67.71,4.45-.05,1.66.24,3.15.9,4.45,1.54.35,3.23.63,5.06.8,1.85.18,3.59.14,5.26-.1.29-.06.61-.14.93-.27.32-.11.68-.23,1.03-.35.35-.11.71-.23,1.06-.35.35-.11.71-.21,1.08-.26,1.3-.24,2.57-.55,3.83-.9,1.24-.35,2.33-.82,3.28-1.41,3.44-1.19,6.77-2.8,9.98-4.81,3.2-2.03,5.98-4.21,8.36-6.59,1.43-.95,2.99-2.25,4.71-3.92,1.72-1.66,3.05-3.2,4.02-4.63,1.77-1.9,3.34-3.38,4.71-4.44,1.37-1.08,2.64-1.54,3.83-1.43.95,0,1.87.56,2.77,1.69.88,1.13.8,2.35-.27,3.65-1.13.72-2.38,1.78-3.73,3.22-1.32,1.41-2.69,2.43-4.1,3.02-1.01.64-2.35,1.96-4,3.91-1.61,1.85-2.94,3.26-4,4.28-.24.24-.51.51-.8.8-.31.29-.66.59-1.08.88-.77.59-1.38,1.22-1.87,1.88-1.83,1.54-3.62,2.85-5.34,3.91-.66-.24-1.19-.11-1.61.35-.53.66-1.01,1.14-1.41,1.43-.18.11-.37.24-.55.35-.18.13-.39.24-.61.35-.24.13-.45.24-.63.35-.18.13-.35.24-.53.37-.95.82-1.99,1.66-3.12,2.49-1.13.82-2.28,1.54-3.47,2.12-1.19.72-2.38,1.38-3.57,2.01-1.17.63-2.36,1.17-3.55,1.64-1.19.48-2.36,1.05-3.52,1.7-1.16.64-2.3,1.35-3.42,2.12l-1.96.27c-.29.06-.59.1-.88.13s-.59.08-.88.14c-.66.23-1.29.35-1.88.35s-1.33-.13-2.22-.35c-3.92-1.08-7.12-2.97-9.61-5.71-.35-.35-.72-.69-1.11-1.01-.39-.34-.79-.64-1.21-.93-.95-.72-1.61-1.37-1.96-1.96-.53-.9-1.08-2.28-1.64-4.18-.56-1.91-1.06-3.84-1.48-5.84-.4-1.99-.61-3.52-.61-4.58.35-.72.74-1.95,1.16-3.7.42-1.75.77-3.51,1.06-5.26.31-1.74.45-2.97.45-3.68.24-.24.69-1.03,1.38-2.36.68-1.33,1.33-2.7,1.95-4.1.63-1.4.95-2.27.95-2.62ZM665.68,462.27c-.82,1.08-1.66,2.07-2.49,3.02-.82.96-1.77,1.85-2.85,2.69-.71,1.3-1.54,2.49-2.49,3.55s-1.9,2.07-2.85,3.02c-.48.95-1.01,1.69-1.61,2.23-.59.53-1.24,1.09-1.95,1.69-.79,1.3-1.74,2.56-2.86,3.73-1.13,1.19-1.37,2.56-.71,4.1,1.3.24,2.6.06,3.92-.53,1.3-.59,2.43-1.13,3.38-1.61.48-.29.96-.56,1.46-.8.51-.23,1-.47,1.48-.71.47-.24.95-.47,1.41-.71.48-.24.93-.51,1.33-.8l4.63-4.63c.72-.66,1.43-1.43,2.14-2.32.31-.42.61-.85.93-1.29.34-.45.68-.9,1.03-1.38.29-1.3.77-2.52,1.43-3.65.71-1.19,1-2.41.88-3.65-.06-.53-.27-1.16-.63-1.87-.35-.72-.56-1.29-.63-1.69-1.24,0-2.15.19-2.75.61-.31.24-.64.43-1.03.58-.39.16-.79.29-1.21.4Z"/>
      <path class="cls-1" d="M718.88,451.42c.95-.24,1.5-.27,1.61-.1s.35.27.71.27c.48.64.55,1.59.18,2.85-.4,1.9-1.24,3.71-2.49,5.43-1.24,1.72-2.19,3.41-2.85,5.06-.42.84-.79,1.56-1.11,2.19-.32.63-.61,1.17-.85,1.64-.23.42-.45.87-.66,1.33-.21.48-.4.95-.58,1.43-.59,1.3-1.19,2.77-1.78,4.36-.59,1.61-1.19,3.23-1.77,4.9l-1.08,2.32c-.59,1.3-1.06,2.46-1.43,3.47-.35,1-.58,2.28-.71,3.83v4.81c.13.82.21,1.69.27,2.57.05.9.11,1.82.18,2.77.11,1.96.5,3.55,1.16,4.81,1.48-.71,3.09-1.93,4.81-3.65.82-.84,1.61-1.59,2.36-2.27.74-.69,1.43-1.27,2.09-1.74.82-1.19,1.74-2.28,2.75-3.3,1.08-1.08,1.93-2.23,2.59-3.47,1.41-1.19,2.36-2.73,2.85-4.63.59-.66,1.16-1.4,1.69-2.22.31-.42.58-.82.85-1.21.26-.39.55-.79.84-1.21.9-1.24,1.67-2.73,2.32-4.45.35-1,.51-1.95.45-2.85-.06-.47-.1-.95-.1-1.41v-1.43c.06-1.01.24-2.01.55-3.02.23-.84.29-1.78.18-2.85.18-.31.39-.8.63-1.53.23-.71.43-1.27.61-1.69.24-.59.69-1.24,1.33-1.96.66-.71,1.29-1.35,1.88-1.95.4-.55.8-1.08,1.19-1.61.39-.53.76-1.06,1.13-1.61.64-1,1.53-1.83,2.67-2.49l2.14-.88c.88-.42,1.59-.66,2.12-.71.9-.13,2.09-.39,3.57-.8,1.54-.48,2.73-.56,3.55-.27.48.06.93.34,1.33.8.42.35.93.32,1.53-.1.95,1.01,1.41,1.91,1.41,2.69,0,.71-.24,1.48-.71,2.32-.77,1.13-1.19,1.8-1.25,2.04-.05.11-.11.26-.18.4s-.11.27-.18.4c-1.06,1.77-2.14,3.73-3.2,5.87-1.08,2.14-1.96,4.16-2.67,6.06,1.19.59,2.75.85,4.71.79,1.96-.05,3.71-.26,5.26-.61.24-.06.45-.13.66-.18.21-.06.43-.13.68-.18.24-.06.45-.13.66-.19.21-.05.43-.11.68-.18.77-.23,1.93-.43,3.47-.61,1.24-.18,2.4-.51,3.47-.98,1.37-.72,2.19-1.08,2.49-1.08.42,0,.82-.11,1.24-.35,1.13-.29,2.17-.59,3.12-.88.95-.31,1.82-.59,2.59-.9.4-.11.82-.24,1.24-.39.42-.16.84-.35,1.25-.58.82-.48,1.59-.58,2.32-.27.23.24.32.66.26,1.24-.05.55.1,1.14.45,1.78-.95.77-1.66,1.13-2.14,1.08-.95.47-1.93.92-2.94,1.33-1,.4-2.07.82-3.2,1.24l-6.32,2.23c-1.43.64-2.38.92-2.85.79-.42-.11-.95-.02-1.61.27-1.96.88-3.65,1.54-5.06,1.96-1.19.35-2.23.77-3.12,1.24-.48.35-.8.63-.98.8-.31.31-.69.51-1.16.63-2.03.35-3.75.5-5.16.45-1.5-.06-3.04.32-4.63,1.16-.35.71-.84,1.51-1.43,2.4s-1.24,1.64-1.96,2.22c-.59,1.19-1.21,2.2-1.87,3.04-.64.82-1.4,1.72-2.22,2.67-1.08.95-2.14,1.96-3.22,3.02-1.06,1.06-2.07,2.07-3.02,3.02-1.66,2.73-3.59,5.26-5.79,7.57-2.19,2.32-4.47,4.6-6.85,6.85-.59.06-1.16.34-1.69.8-.42.35-.98.69-1.69.98-.77.24-1.38.43-1.83.58s-.72.26-.84.31c-.24.06-.59.24-1.08.55-.84.35-1.45.68-1.87.96-.35.24-.63.45-.8.63-.31.24-.66.35-1.06.35-.31,0-.59.24-.9.72-1.48-.31-2.36-.13-2.67.53-.47,0-.95.05-1.41.18-.37.11-.79.11-1.25,0-.35-.31-.63-.56-.8-.8-.24-.35-.45-.63-.63-.8-1.77-.71-2.85-1.48-3.2-2.32-.42-.88-.95-1.54-1.61-1.96-.53-1.24-.85-2.67-.96-4.26-.06-.72-.13-1.45-.19-2.19-.05-.74-.14-1.5-.26-2.27-.06-.24-.11-.47-.18-.68s-.13-.42-.18-.66c-.06-.24-.13-.47-.18-.68-.06-.21-.13-.42-.18-.66-.24-.95-.34-1.9-.27-2.85.06-.9-.1-1.85-.45-2.86.59-1.9.66-3.73.18-5.51.24-.82.55-1.93.9-3.3s.59-2.51.71-3.47c.29-2.49.76-4.57,1.38-6.22.63-1.66,1.59-3.75,2.89-6.24.47-1.06,1-2.14,1.59-3.2.31-.53.59-1.08.9-1.64.29-.56.59-1.14.88-1.74.31-.59.55-1.09.76-1.48.21-.39.34-.66.4-.84.24-.42.63-1.08,1.16-1.96l.88-1.61c.37-.59.77-1.13,1.25-1.59.95-.95,1.83-1.7,2.67-2.23.84-.53,1.83-1.09,3.02-1.69,1.13.24,2.59.03,4.37-.63,1.77-.64,2.88-.63,3.28.1Z"/>
      <path class="cls-1" d="M763.56,473.67c.77-.42,1.72-1.32,2.85-2.72s2.22-2.77,3.3-4.1c1.06-1.33,1.87-2.09,2.4-2.27.35-.59.68-1.09.98-1.51.29-.42.74-.8,1.33-1.16.95-1.72,2.2-3.17,3.75-4.36,1.59-1.25,3.07-2.59,4.44-4,1.13-.48,2.28-1.01,3.44-1.61s2.3-1.27,3.42-2.04c2.32-1.54,4.89-2.35,7.73-2.41,1.32.59,2.59.77,3.83.53,1.19-.23,2.35.06,3.47.9.66,1.13,1.19,1.8,1.61,2.04s.77.56,1.06.98c.48,1.48.84,2.46,1.08,2.94.29.47.47.98.53,1.51.06.88.11,1.64.18,2.27.06.63.13,1.14.18,1.56.06.77.06,1.51,0,2.22-.35,3.02-.95,6.06-1.77,9.08-.13.35-.24.71-.37,1.06-.11.37-.23.76-.35,1.16-.24.77-.53,1.46-.88,2.06-.88,1.13-1.51,2.04-1.87,2.75-.55.95-.93,1.58-1.16,1.88-.72.71-1.38,1.37-2.01,1.95-.63.59-1.21,1.14-1.74,1.61-.53.31-1.06.61-1.61.93-.53.34-1.06.68-1.59,1.03-1.01.66-2.2,1.13-3.57,1.41l-1.59.98c-.55.37-1.13.58-1.78.63-1.06.77-2.25,1.4-3.55,1.87-.59.24-1.21.48-1.83.72-.63.23-1.25.5-1.91.8-.88.35-1.66.77-2.32,1.24-.66.48-1.48.95-2.49,1.43-.53.18-1.4.39-2.59.61-1.13.18-1.93.39-2.4.63.59,1.19.84,2.67.71,4.45-.05,1.66.24,3.15.9,4.45,1.54.35,3.23.63,5.06.8,1.85.18,3.59.14,5.26-.1.29-.06.61-.14.93-.27.32-.11.68-.23,1.03-.35.35-.11.71-.23,1.06-.35.35-.11.71-.21,1.08-.26,1.3-.24,2.57-.55,3.83-.9,1.24-.35,2.33-.82,3.28-1.41,3.44-1.19,6.77-2.8,9.98-4.81,3.2-2.03,5.98-4.21,8.36-6.59,1.43-.95,2.99-2.25,4.71-3.92,1.72-1.66,3.05-3.2,4.02-4.63,1.77-1.9,3.34-3.38,4.71-4.44,1.37-1.08,2.64-1.54,3.83-1.43.95,0,1.87.56,2.77,1.69.88,1.13.8,2.35-.27,3.65-1.13.72-2.38,1.78-3.73,3.22-1.32,1.41-2.69,2.43-4.1,3.02-1.01.64-2.35,1.96-4,3.91-1.61,1.85-2.94,3.26-4,4.28l-.8.8c-.31.29-.66.59-1.08.88-.77.59-1.38,1.22-1.87,1.88-1.83,1.54-3.62,2.85-5.34,3.91-.66-.24-1.19-.11-1.61.35-.53.66-1.01,1.14-1.41,1.43-.18.11-.37.24-.55.35-.18.13-.39.24-.61.35-.24.13-.45.24-.63.35-.18.13-.35.24-.53.37-.95.82-1.99,1.66-3.12,2.49-1.13.82-2.28,1.54-3.47,2.12-1.19.72-2.38,1.38-3.57,2.01-1.17.63-2.36,1.17-3.55,1.64-1.19.48-2.36,1.05-3.52,1.7-1.16.64-2.3,1.35-3.42,2.12l-1.96.27c-.29.06-.59.1-.88.13s-.59.08-.88.14c-.66.23-1.29.35-1.88.35s-1.33-.13-2.22-.35c-3.92-1.08-7.12-2.97-9.61-5.71-.35-.35-.72-.69-1.11-1.01-.39-.34-.79-.64-1.21-.93-.95-.72-1.61-1.37-1.96-1.96-.53-.9-1.08-2.28-1.64-4.18-.56-1.91-1.06-3.84-1.48-5.84-.4-1.99-.61-3.52-.61-4.58.35-.72.74-1.95,1.16-3.7s.77-3.51,1.06-5.26c.31-1.74.45-2.97.45-3.68.24-.24.69-1.03,1.38-2.36.68-1.33,1.33-2.7,1.95-4.1.63-1.4.95-2.27.95-2.62ZM792.21,462.27c-.82,1.08-1.66,2.07-2.49,3.02-.82.96-1.77,1.85-2.85,2.69-.71,1.3-1.54,2.49-2.49,3.55-.95,1.06-1.9,2.07-2.85,3.02-.48.95-1.01,1.69-1.61,2.23-.59.53-1.24,1.09-1.95,1.69-.79,1.3-1.74,2.56-2.86,3.73-1.13,1.19-1.37,2.56-.71,4.1,1.3.24,2.6.06,3.92-.53,1.3-.59,2.43-1.13,3.38-1.61.48-.29.96-.56,1.46-.8.51-.23,1-.47,1.48-.71.47-.24.95-.47,1.41-.71.48-.24.93-.51,1.33-.8l4.63-4.63c.72-.66,1.43-1.43,2.14-2.32.31-.42.61-.85.93-1.29.34-.45.68-.9,1.03-1.38.29-1.3.77-2.52,1.43-3.65.71-1.19,1-2.41.88-3.65-.06-.53-.27-1.16-.63-1.87-.35-.72-.56-1.29-.63-1.69-1.24,0-2.15.19-2.75.61-.31.24-.64.43-1.03.58-.39.16-.79.29-1.21.4Z"/>
      <path class="cls-1" d="M834.21,491.12c.95-.59,1.72-1.37,2.32-2.32.29-.47.63-.95.98-1.43.35-.47.74-.95,1.16-1.41,1.54-1.78,3.2-3.26,4.98-4.45.82-1.24,1.87-2.17,3.1-2.77,1.25-.64,2.23-1.62,2.94-2.93.18-.24.39-.59.63-1.08.24-.47.45-.82.63-1.06,2.25-3.15,4.68-5.76,7.3-7.83.35-.31.71-.59,1.06-.9.35-.29.69-.59.98-.88.48-.48,1.27-1.08,2.41-1.78.53-.29,1.06-.63,1.59-1.01.53-.39,1.05-.82,1.51-1.3.95-.95,2.06-1.66,3.3-2.14.77-.35,1.54-.61,2.32-.79.35-.13.72-.23,1.11-.32.39-.08.79-.19,1.21-.31.84-.24,1.58-.45,2.22-.63.66-.18,1.4-.14,2.23.1,1.9.77,3.33,2.36,4.28,4.81.35.88.16,2.75-.58,5.6-.76,2.85-1.62,5.8-2.64,8.86-1,3.05-1.72,5.42-2.14,7.07-.23.9-.29,1.4-.18,1.51.13.13.18.27.18.45-.23.59-.4,1.13-.53,1.61-.11.47-.24,1.01-.35,1.59-.24.96-.42,2.23-.53,3.84-.13,1.59-.06,2.88.18,3.83,1.19-.06,1.87-.18,2.04-.37.13-.11.27-.18.45-.18.47-.11.85-.14,1.16-.08.29.06.68.03,1.16-.1,2.43-.64,4.63-1.95,6.59-3.91,1.06-.48,2.09-.95,3.07-1.43.98-.47,1.91-.95,2.8-1.41,1.66-1.19,2.99-2.06,4-2.59,1.01-.53,2.52-1.27,4.55-2.22.76-.9,1.8-1.64,3.1-2.23,1.19-.53,2.35-1.27,3.47-2.22.35-.35.66-.69.9-.98.35-.48.71-.56,1.06-.27.59.59.98,1.22,1.16,1.88.18.64.21,1.09.1,1.33-.9.88-1.4,1.59-1.53,2.12-.11.55-.26.9-.43,1.08-.59.59-1.5,1.13-2.67,1.61-1.01.4-1.64.79-1.88,1.16-.23.35-.43.61-.61.79-.37.35-.69.63-.98.8-.31.18-.63.45-.98.8-.24.35-.56.56-.98.63l-1.16.26c-.71.59-1.3,1.14-1.78,1.61-.47.48-1.01,1.01-1.59,1.61-.9.88-1.5,1.58-1.78,2.04-.24.42-.9.98-1.96,1.69l-3.55,2.14c-1.67.84-3.33,1.85-4.98,3.02-1.67,1.19-3.33,2.38-5,3.57-1.06.64-2.28,1.27-3.65,1.87-1.24.53-2.4,1.16-3.46,1.87-.55,0-.87-.02-.98-.08-.18-.13-.51-.03-.98.26-.59-.29-1.19-.32-1.78-.08-.66.29-1.24.32-1.78.08-.59-.47-1.08-.85-1.46-1.16-.39-.29-.69-.5-.93-.61-.35-.24-.69-.55-.98-.9-.24-.59-.32-1.24-.27-1.96.06-.71-.08-1.3-.43-1.77,0-2.62.08-5.11.26-7.48.18-2.38.56-4.87,1.16-7.48.13-.84.42-2.28.9-4.33.47-2.04.85-4.02,1.16-5.92.29-1.9.19-2.99-.27-3.3-1.3.71-2.64,1.78-4,3.2-.66.72-1.3,1.37-1.96,1.96s-1.27,1.13-1.87,1.61l-2.77,1.96c-.42.29-.85.61-1.33.93s-.95.66-1.43,1.01c-.82.59-1.54,1.19-2.12,1.78-.59.59-1.25,1.3-1.96,2.14-.42.42-.82.82-1.21,1.21s-.76.79-1.11,1.21c-.71.77-1.54,1.51-2.49,2.22-.59.59-1.05.98-1.33,1.16-.31.18-.69.5-1.16.98l-1.69,1.69c-.55.53-1.22.98-2.06,1.33-1.9,2.56-4.02,5.02-6.37,7.4-2.33,2.36-4.2,4.78-5.56,7.2-1.41,1.19-2.93,2.22-4.53,3.12-1.61.88-3.54.98-5.79.26-1.19-.71-1.96-1.3-2.32-1.77-.35-.42-.77-.77-1.24-1.08.11-1.3.23-2.54.35-3.73.11-1.19.47-2.44,1.06-3.75l1.08-1.78c.59-1,.98-2.19,1.16-3.55.18-1.43.56-2.67,1.16-3.75.71-1.17,1.16-2.15,1.33-2.93.18-.72.43-1.4.79-2.06.31-.71.63-1.27.98-1.69.37-.42.69-.98.98-1.69.31-.66.72-1.33,1.25-2.04.53-.72.95-1.4,1.24-2.06.72-2.54,1.67-5.16,2.85-7.83.24-.82.48-1.62.72-2.4.23-.77.53-1.51.88-2.23.31-.64.59-1.3.9-1.96.29-.64.58-1.27.88-1.87.29-.64.59-1.29.88-1.91.31-.63.59-1.25.9-1.91.35-.71.68-1.33.98-1.87.29-.53.68-1.09,1.14-1.69.19-.31.37-.59.55-.9.18-.29.32-.59.43-.88.13-.29.27-.59.45-.88.18-.31.35-.59.53-.9.18-.29.35-.61.55-.93.18-.32.32-.69.43-1.11.24-.77.69-1.51,1.33-2.23.42-.47.79-.93,1.11-1.37.34-.45.61-.88.85-1.3.42-.77,1.19-1.3,2.32-1.59,1.01.47,2.06.27,3.17-.58,1.09-.87,1.99-.79,2.7.23,1.67,1.06,2.8,1.9,3.39,2.49.71.64,1.19,1.3,1.41,1.95.59,1.08.66,2.17.18,3.3-.47,1.13-1.3,2.11-2.49,2.94-.4,1.83-1.24,3.73-2.49,5.69-.59.9-1.16,1.77-1.69,2.64-.53.85-1.03,1.7-1.51,2.52l-1.41,3.57c-.72,1.66-1.46,3.33-2.23,4.98-.77,1.66-1.62,3.26-2.57,4.81-.77,1.61-1.35,2.64-1.74,3.12-.39.47-.72.93-.98,1.37-.27.45-.74,1.51-1.38,3.17Z"/>
      <path class="cls-1" d="M964.86,477.77c-.35-.24-.8-.31-1.33-.19-.53.13-.92.31-1.16.55.24.42.35.82.35,1.24,0,.24.06.66.18,1.25-2.19,2.19-3.62,3.91-4.28,5.16-1.48,1.54-2.25,2.4-2.32,2.57l-.18.27-1.41,1.43c-1.67,1.3-2.91,2.54-3.75,3.73-.77,1.13-2.01,2.2-3.73,3.2-1.3.96-2.2,1.67-2.67,2.14-.24.24-.55.53-.9.85-.35.32-.77.69-1.24,1.11-.31.31-.74.8-1.33,1.51-.59.72-1.11,1.22-1.51,1.51-.77.59-1.58,1.14-2.41,1.61-.66.35-1.33.95-2.04,1.78-1.72.77-3.01,1.72-3.83,2.85-.77,1.01-1.93,2.01-3.47,3.02-1.08.71-2.52,1.61-4.37,2.67-1.83,1.08-3.41,1.85-4.71,2.32-.18.06-.35.13-.53.18-.18.06-.32.13-.45.18-.11.06-.26.13-.45.18-.18.06-.35.13-.53.18-.95-.58-1.87-1.17-2.75-1.77-.9-.59-1.64-1.43-2.23-2.49-1.13-.84-1.98-1.43-2.57-1.78-.72-.42-1.33-.88-1.88-1.43-.59-1-1.21-2.01-1.87-3.02s-1.37-2.01-2.14-3.02c-1.54-2.07-2.7-4.33-3.47-6.77-.18-.29-.32-.8-.43-1.51l-.27-1.69c-.11-.48-.24-.92-.35-1.33-.13-.42-.24-.8-.35-1.16-.24-.59-.31-1.48-.18-2.67,0-.84.11-1.61.35-2.32.11-.42.24-.85.35-1.3.11-.43.24-.9.35-1.37.24-.77.5-1.53.8-2.28.29-.74.59-1.46.88-2.17.72-1.61,1.22-3.15,1.51-4.63.72-2.49,1.5-4.87,2.32-7.12.18-.42.34-.98.45-1.69.06-.53.39-.92.98-1.16.47-2.38,1.24-4.66,2.32-6.85,1.06-2.2,2.14-4.31,3.2-6.33.66-1.24,1.29-2.49,1.87-3.78.59-1.27,1.19-2.56,1.78-3.87.59-1.3,1.19-2.59,1.78-3.87.59-1.27,1.22-2.52,1.87-3.78.06-1.3.53-2.49,1.43-3.55.05-1.19.53-2.46,1.41-3.83.9-1.37,1.5-2.65,1.78-3.83-1.3-.37-2.77-.39-4.36-.1-1.61.31-3.01.56-4.18.8-2.14.06-4.41.06-6.77,0-.42-.06-.82-.13-1.21-.23s-.79-.16-1.21-.23c-.77-.18-1.51-.26-2.22-.26-1.08.05-1.87-.03-2.41-.27-.59-.29-1.16-.32-1.69-.1-1.66-1.41-3.36-2.67-5.11-3.73-1.75-1.08-2.89-2.43-3.42-4.1,0-.35.18-.64.53-.88.48-.35.77-.59.88-.71,1.01-.31,2.09-.39,3.22-.27,1.13.06,2.07-.14,2.85-.63,1.72.24,3.47.13,5.24-.35,1.61-.47,3.3-.66,5.08-.53.24,0,.59.06,1.06.18.48.11.84.18,1.08.18.59.06,1.09.06,1.51,0,.24-.06.48-.11.71-.18.24-.06.51-.11.8-.18.71-.13,1.48-.13,2.32,0,.84.11,1.66.11,2.49,0,1.72-.13,3.59.03,5.61.43,2.19.42,4.12.34,5.79-.26.29-.84.61-1.67.93-2.54.32-.85.69-1.7,1.11-2.54.84-1.72,1.46-3.41,1.87-5.06.48-.72.95-1.51,1.43-2.41.48-.88.84-1.75,1.06-2.57l1.7-2.86c.23-.35.47-.71.71-1.06.24-.35.5-.71.8-1.06.82-1.72,1.45-3.36,1.87-4.9.24-.84.48-1.67.76-2.54.27-.85.58-1.75.93-2.72.77-.82,1.54-1.74,2.32-2.75.77-1.01,1.54-2.11,2.32-3.3.88.11,1.58-.11,2.04-.71.55-.59,1.35-.55,2.41.18,0,.35.14.68.45.98.29.29.32.74.08,1.33,1.19,1.19,1.96,2.25,2.32,3.2.24.95.14,2.04-.26,3.3-.42,1.24-.34,2.4.26,3.47.24.53.31,1.09.18,1.69-.11.66-.06,1.16.18,1.51.31.66.63,1.25.98,1.78.42.59.63,1.37.63,2.32,0,.35-.1.8-.27,1.33s-.39,1.09-.61,1.69c-.42,1.78-.77,3.02-1.08,3.75-.11.35-.24.72-.35,1.11-.11.39-.24.79-.35,1.21-.84,1-1.25,1.62-1.25,1.87,0,.18-.05.43-.18.8-.18.35-.35.76-.53,1.19-.18.45-.39.92-.63,1.38-.24.48-.43.92-.61,1.33-.19.42-.37.77-.55,1.08,2.62.42,4.89.68,6.82.79,1.93.13,4.05-.02,6.37-.43l7.03-.98c1.9-.24,4.18-.5,6.85-.8.72-.06,1.46-.06,2.23,0,.42.06.8.11,1.16.13.35.03.71.05,1.06.05,1.54,0,3.05-.05,4.55-.18,1.48-.11,2.88-.24,4.18-.35.24-.06.45-.11.66-.18s.4-.11.58-.18c.35-.13.72-.13,1.08,0h1.59c.55,0,1.08-.03,1.61-.1,1.08-.05,2.03.34,2.85,1.16.35,1.19.48,1.85.35,1.96-.18.18-.29.35-.35.53-.11,1.54-.32,2.32-.63,2.32-.29,0-.43.13-.43.35-.95.24-1.75.45-2.41.63-.64.18-1.16.56-1.51,1.16-2.01.42-3.89.5-5.61.27-1.72-.31-3.47-.03-5.24.8-.9.4-1.75.85-2.59,1.33-.84.53-1.93.56-3.3.08-1.19,0-2.54.06-4.08.18-1.54.13-3.04.24-4.45.35-2.03.18-4.29.37-6.82.58s-4.47.35-5.82.4c-1.32.06-3.18.14-5.61.27-2.44.11-4.6.18-6.5.18-.95.77-1.58,1.78-1.88,3.02-.29,1.19-.92,2.14-1.87,2.85-1.06,2.38-1.83,3.89-2.32,4.55-.53.71-.95,1.62-1.24,2.75-1.67,2.14-3.18,4.37-4.55,6.69-1.24,2.12-2.81,4.29-4.71,6.5-.24,1.3-.69,2.46-1.33,3.47-.59.95-1.05,2.28-1.33,4-1.25,1.66-2.2,3.62-2.85,5.87-.31,1.08-.64,2.17-1.03,3.3s-.82,2.28-1.29,3.47c-.24.95-.51,1.87-.8,2.77-.31.88-.63,1.8-.98,2.75-.42,1.08-.98,2.17-1.69,3.3-.31.48-.61,1-.93,1.56-.34.56-.64,1.14-.95,1.74-.23.24-.35.56-.35.98,0,.29-.05.63-.18.98-.18.42-.35.82-.53,1.19-.18.4-.35.74-.53,1.03-.24.42-.53,1.05-.9,1.87-.18.42-.32,1.05-.43,1.88-.13.82-.27,1.45-.45,1.87-.06.18-.11.35-.18.53s-.11.34-.18.45-.13.26-.18.45c-.06.18-.13.35-.18.53-.35,1.66-.35,2.78,0,3.38.35.59.64,1.19.88,1.78.11.35.24.68.35.98.13.29.24.59.35.88.31.53.48,1.09.55,1.69.29.13.59.24.88.35.29.13.56.24.8.37.47.23,1.03.35,1.69.35.77.11,1.54-.21,2.32-.98.84-.84,1.54-1.27,2.14-1.33.71-.24,1.51-.35,2.4-.35.77,0,1.46-.18,2.06-.55.35-.29.68-.58.98-.88.29-.29.56-.59.79-.88.37-.53,1.01-.95,1.96-1.25,1.9-.47,2.91-.85,3.02-1.16.06-.23.48-.68,1.25-1.33.42-.29.82-.59,1.21-.88.39-.31.72-.56,1.01-.8.48-.42,1.29-.98,2.41-1.69,1.19-.59,1.87-.95,2.04-1.08.18-.11.69-.53,1.51-1.24.59-.31,1.14-.61,1.66-.93.5-.34.96-.68,1.38-1.03.64-.59,1.59-1.24,2.85-1.96,1.41-.59,2.2-.96,2.35-1.11.16-.14.26-.34.32-.58.05-.24.71-.74,1.96-1.51.4-.88.95-1.66,1.59-2.32.31-.29.63-.64.98-1.03s.74-.8,1.16-1.29c.77-.88,1.51-1.61,2.23-2.14.82-.64,1.51-1.24,2.04-1.78.24-.18.53-.43.88-.79.35-.37.77-.56,1.25-.63.35-.31.66-.56.93-.8.27-.24.51-.47.76-.71s.51-.51.85-.8c.32-.31.72-.66,1.19-1.08l.9-.88c.4-.42.71-.64.88-.71.53,0,.92.18,1.16.53.29.35.68.53,1.16.53-.06.77-.1,1.4-.13,1.88"/>
      <path class="cls-1" d="M929.49,511.41c.18-.64.69-1.3,1.51-1.95.24-.77.93-2.07,2.06-3.87,1.13-1.82,2.43-3.78,3.91-5.88,1.5-2.11,2.86-4.05,4.15-5.82,1.27-1.78,2.12-3.01,2.54-3.65.77-.77,1.88-2.11,3.33-4,1.46-1.91,2.91-3.83,4.36-5.76,1.46-1.93,2.51-3.3,3.17-4.13.53-1.61,1.64-3.6,3.34-6.01,1.69-2.4,3.49-4.86,5.42-7.38s3.52-4.71,4.78-6.54c.58-.95,1.09-1.78,1.51-2.49.4-.72.85-1.48,1.33-2.32.47-.48.88-1.01,1.24-1.61.24-.88.13-1.58-.35-2.04-.42-.48-.59-1.09-.53-1.87,1.06-2.03,2.11-3.3,3.12-3.84,1.06-.58,2.11-1.56,3.1-2.93.72-.48,1.29-.84,1.7-1.08.58-.29,1.16-.71,1.69-1.24.82-.84,2.06-1.06,3.7-.68,1.62.39,2.59.92,2.88,1.56.06.35.06.84,0,1.43-.05.29-.11.59-.18.88-.05.31-.11.59-.18.88-.11.55-.23,1.05-.35,1.53-.11.47-.24.95-.35,1.41-.11.42-.24.88-.35,1.38-.13.5-.24,1.03-.35,1.56-.24,1.3-.45,2.56-.63,3.73-.18,1.19.21,2.32,1.16,3.39-.11.59-.1,1.3.1,2.14.18.82.37,1.59.61,2.32.24,3.79.92,7.56,2.06,11.3,1.13,3.73,2.33,7.15,3.65,10.23,0,.59.08,1.19.26,1.78.18.59.39,1.19.63,1.78.35,3.79,0,7.57-1.06,11.3-.55,1.85-1.06,3.68-1.56,5.51-.51,1.85-1,3.65-1.48,5.43-.71,1.19-1.3,2.56-1.77,4.1-.42,1.37-1.01,2.49-1.78,3.38-.59.95-1.13,2.03-1.61,3.2-.47,1.19-1.41,2.14-2.85,2.86-.77.23-1.58.23-2.4,0-.77-.24-1.53-.24-2.23,0-.53.05-1.06.21-1.61.43-.4.18-.88.27-1.41.27-1.54.29-2.81.14-3.83-.45-.9-.47-2.11-.85-3.65-1.16,0-.35-.18-.61-.53-.8-.37-.18-.66-.39-.9-.61-.42-1.78-.88-3.15-1.41-4.1-.42-.84-.77-1.72-1.08-2.67-.35-1.37-.53-2.64-.53-3.83,0-1.3-.31-2.59-.88-3.83-.48-1.08-.69-1.72-.63-1.96.05-.24.08-.59.08-1.06,0-1.54-.08-3.25-.26-5.08-.18-1.9.56-3.41,2.22-4.53.66-.48,1.09-1.11,1.33-1.88.24-.64.74-1.33,1.51-2.04.24-.24.63-.35,1.16-.35.42,0,.8.06,1.16.18l1.08.88c.29.48.21,1.13-.27,1.96-.24.42-.43.8-.58,1.16s-.27.69-.4.98c.06.24.13.47.18.66.06.21.13.39.18.5.13.35.06.74-.18,1.16.84.66,1.37,1.33,1.61,2.04.29.95.71,1.75,1.24,2.41.72.77,1.35,1.37,1.88,1.77.64.42,1.27.96,1.87,1.61.66-.35,1.13-.53,1.43-.53.4,0,.88-.11,1.41-.35,1.01-1.3,1.85-2.97,2.49-4.98.13-.48.24-1.01.35-1.61.13-.59.18-1.13.18-1.61-.05-1.54-.53-3.14-1.41-4.81-.9-1.72-1.54-3.31-1.96-4.81-.48-1-.63-2.07-.45-3.2.18-1.24.16-2.32-.08-3.2-.06-.59-.24-1.08-.53-1.43-.13-.18-.24-.37-.37-.58-.11-.21-.23-.43-.35-.66-.23-1.01-.32-2.07-.26-3.22.11-1.17-.16-2.19-.8-3.02-.71.71-1.85,2.06-3.39,4.05-1.54,1.99-3.07,3.96-4.58,5.92-1.51,1.96-2.59,3.26-3.25,3.92-.29.42-.61.82-.93,1.21-.32.39-.66.72-1.03,1.01-.35.31-.69.64-1.01,1.03-.34.39-.64.79-.93,1.21"/>
    </g>
  </g>
</svg>